<svg width="20" height="20" viewBox="0 0 20 20" fill="none" xmlns="http://www.w3.org/2000/svg">
<path d="M19 7.5H5V4.5C5 3.397 5.897 2.5 7 2.5C8.103 2.5 9 3.397 9 4.5H11C11 2.294 9.206 0.5 7 0.5C4.794 0.5 3 2.294 3 4.5V7.5H1C0.734784 7.5 0.48043 7.60536 0.292893 7.79289C0.105357 7.98043 0 8.23478 0 8.5V10.5C0 13.106 1.674 15.323 4 16.15V19.5H6V16.5H14V19.5H16V16.15C18.326 15.323 20 13.106 20 10.5V8.5C20 8.23478 19.8946 7.98043 19.7071 7.79289C19.5196 7.60536 19.2652 7.5 19 7.5ZM18 10.5C18 12.706 16.206 14.5 14 14.5H6C3.794 14.5 2 12.706 2 10.5V9.5H18V10.5Z" fill="#70707B"/>
</svg>
