<svg width="20" height="20" viewBox="0 0 20 20" fill="none" xmlns="http://www.w3.org/2000/svg">
<path d="M18 7.057V0.5H16V2.5H4V0.5H2V7.057C0.81 7.75 0 9.025 0 10.5V14.5C0 14.7652 0.105357 15.0196 0.292893 15.2071C0.48043 15.3946 0.734784 15.5 1 15.5H2V19.5H4V15.5H16V19.5H18V15.5H19C19.2652 15.5 19.5196 15.3946 19.7071 15.2071C19.8946 15.0196 20 14.7652 20 14.5V10.5C20 9.025 19.189 7.75 18 7.057ZM16 4.5V6.5H11V4.5H16ZM4 4.5H9V6.5H4V4.5ZM18 13.5H2V10.5C2 9.397 2.897 8.5 4 8.5H16C17.103 8.5 18 9.397 18 10.5V13.5Z" fill="#70707B"/>
</svg>
